#!OML:ASF I:\golf\golf\golf 2\Subject 1\2002-09-07\Subject1.ASF
:FULLY-SPECIFIED
:DEGREES
427
root 1.97635 17.7763 -4.68217 4.39103 2.30283 -3.53484
lowerback 1.44126 0.468386 -4.51885
upperback 0.655398 0.584102 4.94925
thorax -0.229138 0.284082 7.70795
lowerneck -24.9414 -4.931 -2.81015
upperneck 15.0416 -5.91165 0.913328
head 8.87057 -2.83207 -0.0972227
rclavicle -3.57812e-015 -2.70347e-014
rhumerus -29.1767 -10.9272 -72.3719
rradius 29.9732
rwrist -9.38971
rhand -17.6705 11.4681
rfingers 7.12502
rthumb 8.58835 -18.3372
lclavicle -3.57812e-015 -2.70347e-014
lhumerus -27.1129 -0.134493 86.492
lradius 39.7585
lwrist 7.1006
lhand -8.84822 31.2081
lfingers 7.12502
lthumb 17.0925 60.4762
rfemur -27.7771 -1.58945 22.01
rtibia 36.3185
rfoot -8.37276 9.39871
rtoes 14.692
lfemur -9.94155 0.954788 -17.9696
ltibia 30.4659
lfoot -20.7552 0.231568
ltoes -1.89184
428
root 1.98386 17.7775 -4.71901 4.31773 2.03391 -3.4808
lowerback 1.66402 0.44154 -4.63571
upperback 0.581302 0.541242 4.85439
thorax -0.424038 0.271213 7.67351
lowerneck -25.0307 -4.7575 -2.63525
upperneck 15.1157 -5.72774 0.878438
head 8.90163 -2.73852 -0.112313
rclavicle -1.69961e-014 -2.62396e-014
rhumerus -29.3661 -10.8493 -72.6213
rradius 29.7649
rwrist -9.19634
rhand -17.6633 11.2465
rfingers 7.12502
rthumb 8.59524 -18.5585
lclavicle -1.69961e-014 -2.62396e-014
lhumerus -27.4671 0.112546 86.2796
lradius 39.7463
lwrist 7.26518
lhand -9.2822 30.9048
lfingers 7.12502
lthumb 16.6748 60.2086
rfemur -27.842 -1.52785 21.9227
rtibia 36.2865
rfoot -8.19371 9.59059
rtoes 14.4518
lfemur -9.94165 1.03476 -18.0844
ltibia 30.4445
lfoot -20.6382 0.378236
ltoes -1.82801
429
root 1.99115 17.782 -4.7571 4.3358 1.69971 -3.3058
lowerback 1.72742 0.430364 -4.93262
upperback 0.514822 0.519795 4.77969
thorax -0.526722 0.266033 7.76661
lowerneck -25.1733 -4.62929 -2.57955
upperneck 15.3342 -5.55769 0.809534
head 8.99494 -2.66152 -0.125499
rclavicle -6.55989e-015 9.54166e-015
rhumerus -29.5309 -10.7672 -72.7583
rradius 29.607
rwrist -9.04351
rhand -17.5472 10.9331
rfingers 7.12502
rthumb 8.70728 -18.8673
lclavicle -6.55989e-015 9.54166e-015
lhumerus -27.848 0.291578 86.1662
lradius 39.7356
lwrist 7.58818
lhand -9.14936 31.1916
lfingers 7.12502
lthumb 16.8027 60.4846
rfemur -27.9838 -1.39823 21.7025
rtibia 36.2147
rfoot -8.10835 9.74065
rtoes 13.5546
lfemur -10.0752 1.25835 -18.3428
ltibia 30.4424
lfoot -20.5062 0.560245
ltoes -2.19884
430
root 1.99853 17.786 -4.79346 4.36862 1.385 -3.25097
lowerback 1.73395 0.418173 -5.08492
upperback 0.447171 0.500924 4.73275
thorax -0.598112 0.261247 7.80538
lowerneck -25.1857 -4.54986 -2.54381
upperneck 15.4675 -5.45052 0.745426
head 9.03893 -2.61614 -0.139314
rclavicle -5.26779e-015 2.22639e-014
rhumerus -29.6644 -10.9379 -72.8209
rradius 29.2921
rwrist -8.78743
rhand -17.3127 10.9754
rfingers 7.12502
rthumb 8.93359 -18.8155
lclavicle -5.26779e-015 2.22639e-014
lhumerus -28.1848 0.537544 86.0347
lradius 39.5585
lwrist 7.75811
lhand -8.9937 31.5998
lfingers 7.12502
lthumb 16.9525 60.88
rfemur -28.1085 -1.27197 21.6006
rtibia 36.0893
rfoot -8.07921 9.83392
rtoes 12.8971
lfemur -10.2522 1.51932 -18.462
ltibia 30.4774
lfoot -20.4112 0.657049
ltoes -2.35222
431
root 2.00612 17.7887 -4.8294 4.32992 1.16511 -3.38395
lowerback 1.7447 0.396678 -5.01236
upperback 0.467241 0.47251 4.71362
thorax -0.577721 0.245368 7.74311
lowerneck -25.2363 -4.45004 -2.46927
upperneck 15.4898 -5.34374 0.76379
head 9.05204 -2.55907 -0.130036
rclavicle 4.57205e-015 -3.10104e-014
rhumerus -29.7339 -11.285 -72.9147
rradius 28.9877
rwrist -8.45201
rhand -17.2373 10.9688
rfingers 7.12502
rthumb 9.00638 -18.8189
lclavicle 4.57205e-015 -3.10104e-014
lhumerus -28.2836 0.803764 85.8748
lradius 39.1416
lwrist 7.76204
lhand -8.9535 31.7506
lfingers 7.12502
lthumb 16.9912 61.0275
rfemur -28.1294 -1.27606 21.7107
rtibia 35.9266
rfoot -8.18145 9.89501
rtoes 12.1803
lfemur -10.3653 1.59906 -18.3642
ltibia 30.5596
lfoot -20.3696 0.77063
ltoes -2.07396
432
root 2.01662 17.7913 -4.86153 4.35911 0.959365 -3.63961
lowerback 1.63962 0.372142 -4.78489
upperback 0.487434 0.446359 4.73246
thorax -0.491808 0.228217 7.63162
lowerneck -25.3277 -4.33064 -2.38295
upperneck 15.4996 -5.20934 0.765003
head 9.0664 -2.49017 -0.124963
rclavicle -7.90169e-015 -2.8625e-014
rhumerus -29.8544 -11.4984 -73.007
rradius 28.8715
rwrist -7.98355
rhand -17.2882 10.516
rfingers 7.12502
rthumb 8.95728 -19.2738
lclavicle -7.90169e-015 -2.8625e-014
lhumerus -28.3611 0.981325 85.7726
lradius 38.6733
lwrist 7.92756
lhand -8.96109 31.9172
lfingers 7.12502
lthumb 16.9839 61.1946
rfemur -28.1774 -1.37227 21.9616
rtibia 35.7317
rfoot -8.52 9.87735
rtoes 9.94873
lfemur -10.5383 1.57528 -18.1585
ltibia 30.6897
lfoot -20.3587 1.02869
ltoes -1.98754
433
root 2.02804 17.7952 -4.89238 4.41984 0.638323 -3.7567
lowerback 1.52908 0.370146 -4.68179
upperback 0.491561 0.448107 4.72253
thorax -0.424907 0.226493 7.5612
lowerneck -25.4945 -4.23513 -2.29447
upperneck 15.6092 -5.08828 0.675849
head 9.12573 -2.43707 -0.15612
rclavicle -1.59028e-015 -2.46493e-014
rhumerus -29.9947 -11.5543 -73.1221
rradius 28.8016
rwrist -7.846
rhand -17.2833 10.2321
rfingers 7.12502
rthumb 8.96198 -19.5575
lclavicle -1.59028e-015 -2.46493e-014
lhumerus -28.5155 1.18454 85.7071
lradius 38.2464
lwrist 8.04262
lhand -8.74057 32.518
lfingers 7.12502
lthumb 17.1962 61.7771
rfemur -28.2381 -1.36385 22.0347
rtibia 35.534
rfoot -9.00074 9.73763
rtoes 7.27062
lfemur -10.7299 1.60258 -18.1325
ltibia 30.8277
lfoot -20.3199 1.34468
ltoes -1.86075
434
root 2.03691 17.8004 -4.92474 4.47637 0.245527 -3.81618
lowerback 1.49112 0.387367 -4.67524
upperback 0.441269 0.472672 4.69014
thorax -0.459431 0.241445 7.52215
lowerneck -25.4698 -4.11748 -2.18824
upperneck 15.6306 -4.95642 0.626493
head 9.12321 -2.37497 -0.16993
rclavicle 4.37326e-015 -1.27222e-014
rhumerus -30.2304 -11.7548 -73.2162
rradius 28.6372
rwrist -7.82123
rhand -17.3751 10.2969
rfingers 7.12502
rthumb 8.87342 -19.4966
lclavicle 4.37326e-015 -1.27222e-014
lhumerus -28.7618 1.45456 85.5613
lradius 37.7223
lwrist 7.9294
lhand -8.51353 32.7301
lfingers 7.12502
lthumb 17.4147 61.97
rfemur -28.3274 -1.26104 22.0469
rtibia 35.3741
rfoot -9.51911 9.53737
rtoes 5.22373
lfemur -10.9159 1.72863 -18.1575
ltibia 30.9234
lfoot -20.2269 1.57995
ltoes -1.68191
435
root 2.04195 17.8027 -4.95618 4.50693 -0.0502907 -3.94937
lowerback 1.53713 0.374396 -4.64296
upperback 0.331409 0.455818 4.67985
thorax -0.595978 0.240739 7.49227
lowerneck -25.3122 -3.98579 -2.08681
upperneck 15.6726 -4.81761 0.622233
head 9.10739 -2.30534 -0.164294
rclavicle -1.6847e-014 1.59028e-015
rhumerus -30.5607 -12.1021 -73.2373
rradius 28.405
rwrist -7.49513
rhand -17.5972 10.3256
rfingers 7.12502
rthumb 8.65903 -19.4768
lclavicle -1.6847e-014 1.59028e-015
lhumerus -29.0886 1.74257 85.3459
lradius 37.0565
lwrist 7.77217
lhand -8.38718 32.1975
lfingers 7.12502
lthumb 17.5363 61.4266
rfemur -28.4008 -1.24962 22.187
rtibia 35.2602
rfoot -10.205 9.17638
rtoes 2.14756
lfemur -11.0522 1.8476 -18.0597
ltibia 30.9853
lfoot -20.1473 1.71852
ltoes -1.69219
436
root 2.04548 17.8047 -4.98607 4.46242 -0.311658 -3.9807
lowerback 1.55924 0.357505 -4.69653
upperback 0.355699 0.430975 4.64487
thorax -0.579269 0.226919 7.48649
lowerneck -25.4327 -3.90786 -2.08835
upperneck 15.8262 -4.71985 0.665998
head 9.18147 -2.25312 -0.138211
rclavicle 5.2181e-015 1.07344e-014
rhumerus -30.7106 -12.279 -73.3347
rradius 28.2646
rwrist -7.3264
rhand -17.6713 10.2327
rfingers 7.12502
rthumb 8.58755 -19.5727
lclavicle 5.2181e-015 1.07344e-014
lhumerus -29.1915 1.97529 85.1657
lradius 36.292
lwrist 7.63443
lhand -8.49765 31.4247
lfingers 7.12502
lthumb 17.43 60.6632
rfemur -28.3822 -1.26803 22.2338
rtibia 35.1722
rfoot -11.1968 8.57253
rtoes -2.97854
lfemur -11.0914 1.92898 -18.0615
ltibia 31.0521
lfoot -20.1052 1.85783
ltoes -1.6119
437
root 2.05062 17.809 -5.01407 4.45373 -0.580767 -3.9908
lowerback 1.43524 0.367635 -4.72485
upperback 0.457103 0.445949 4.60352
thorax -0.406906 0.225488 7.45899
lowerneck -25.6133 -3.88103 -2.17588
upperneck 15.8893 -4.67302 0.779683
head 9.2385 -2.22168 -0.0816323
rclavicle -2.83268e-015 -3.10104e-014
rhumerus -30.7896 -12.3604 -73.4609
rradius 28.2354
rwrist -7.37115
rhand -17.8076 9.99624
rfingers 7.12502
rthumb 8.45598 -19.8145
lclavicle -2.83268e-015 -3.10104e-014
lhumerus -29.0501 2.12653 85.0608
lradius 35.3401
lwrist 7.49074
lhand -8.93682 30.7847
lfingers 7.12502
lthumb 17.0073 60.0601
rfemur -28.4027 -1.26997 22.2478
rtibia 35.1015
rfoot -12.1325 7.94454
rtoes -7.80365
lfemur -11.1825 1.98503 -18.1039
ltibia 31.1239
lfoot -20.0647 2.03247
ltoes -1.29906
438
root 2.05405 17.813 -5.04163 4.46817 -0.779357 -4.16101
lowerback 1.35662 0.372837 -4.63208
upperback 0.489879 0.455966 4.6279
thorax -0.329961 0.226883 7.43132
lowerneck -25.7479 -3.84044 -2.20036
upperneck 16.0265 -4.61534 0.814908
head 9.31008 -2.19058 -0.0605316
rclavicle -1.03368e-014 2.70347e-014
rhumerus -30.9834 -12.5776 -73.466
rradius 28.1697
rwrist -7.38024
rhand -18.0886 9.78631
rfingers 7.12502
rthumb 8.18486 -20.0352
lclavicle -1.03368e-014 2.70347e-014
lhumerus -28.9456 2.3512 84.9844
lradius 34.2811
lwrist 7.24337
lhand -8.88249 30.6189
lfingers 7.12502
lthumb 17.0595 59.8899
rfemur -28.4404 -1.3438 22.4582
rtibia 35.0657
rfoot -12.8163 7.41411
rtoes -10.4193
lfemur -11.2964 1.9896 -17.9538
ltibia 31.1756
lfoot -20.0093 2.18803
ltoes -0.921656
439
root 2.05636 17.8181 -5.06779 4.42971 -1.00673 -4.37843
lowerback 1.39738 0.351935 -4.52797
upperback 0.494543 0.42828 4.68882
thorax -0.343282 0.213189 7.43634
lowerneck -25.8706 -3.74998 -2.17053
upperneck 16.2027 -4.48855 0.752732
head 9.38875 -2.13567 -0.0714923
rclavicle -1.18774e-014 -3.18055e-015
rhumerus -31.2228 -12.7193 -73.4458
rradius 28.0794
rwrist -7.33784
rhand -18.0965 9.80872
rfingers 7.12502
rthumb 8.1772 -20.013
lclavicle -1.18774e-014 -3.18055e-015
lhumerus -29.0307 2.70867 84.8632
lradius 33.3694
lwrist 6.9651
lhand -8.89459 30.4935
lfingers 7.12502
lthumb 17.0479 59.7655
rfemur -28.4179 -1.41764 22.7437
rtibia 35.0848
rfoot -13.4218 6.88581
rtoes -10.9833
lfemur -11.3316 2.03025 -17.7397
ltibia 31.2125
lfoot -19.952 2.31545
ltoes -0.670723
440
root 2.06021 17.823 -5.09128 4.42487 -1.29479 -4.40769
lowerback 1.38326 0.333197 -4.57956
upperback 0.489927 0.402738 4.68694
thorax -0.336281 0.200137 7.46491
lowerneck -25.8613 -3.67395 -2.16875
upperneck 16.2049 -4.38205 0.736263
head 9.38611 -2.08819 -0.0610378
rclavicle 2.93207e-015 -5.24792e-014
rhumerus -31.5044 -12.7909 -73.4434
rradius 28.0378
rwrist -7.24261
rhand -17.8911 9.70678
rfingers 7.12502
rthumb 8.37546 -20.1072
lclavicle 2.93207e-015 -5.24792e-014
lhumerus -29.19 3.00759 84.7084
lradius 32.5567
lwrist 6.69689
lhand -9.20906 30.2697
lfingers 7.12502
lthumb 16.7452 59.5676
rfemur -28.4554 -1.51468 22.8355
rtibia 35.1822
rfoot -13.8538 6.31962
rtoes -10.0725
lfemur -11.3872 2.10371 -17.7576
ltibia 31.2408
lfoot -19.8416 2.53086
ltoes -0.764373
441
root 2.06114 17.8244 -5.11369 4.43294 -1.55336 -4.29548
lowerback 1.30827 0.33437 -4.78485
upperback 0.499953 0.40327 4.61806
thorax -0.284631 0.198258 7.51097
lowerneck -25.809 -3.64438 -2.19795
upperneck 16.163 -4.35912 0.857523
head 9.36612 -2.06524 -0.00928728
rclavicle 6.36111e-015 -7.15625e-015
rhumerus -31.8031 -12.8911 -73.4814
rradius 28.053
rwrist -7.25238
rhand -17.7298 9.43946
rfingers 7.12502
rthumb 8.53111 -20.3682
lclavicle 6.36111e-015 -7.15625e-015
lhumerus -29.245 3.25595 84.5337
lradius 31.635
lwrist 6.22141
lhand -9.08573 30.5055
lfingers 7.12502
lthumb 16.8639 59.7933
rfemur -28.5248 -1.6428 22.7869
rtibia 35.3638
rfoot -14.2328 5.40449
rtoes -9.513
lfemur -11.4404 2.18804 -17.9274
ltibia 31.2569
lfoot -19.7292 2.78226
ltoes -1.20798
